<svg width="375" height="1348" viewBox="0 0 375 1348" fill="none" xmlns="http://www.w3.org/2000/svg">
<g clip-path="url(#clip0_4511_35837)">
<path d="M199.416 618.55L203.451 621.25L207.741 618.489L203.704 615.789L199.416 618.55Z" fill="#F2B04D"/>
<path d="M203.961 610.328L207.996 613.025L207.742 618.489L203.705 615.789L203.961 610.328Z" fill="#FFD596"/>
<path d="M203.705 615.789L203.961 610.329L199.67 613.09L199.416 618.55L203.705 615.789Z" fill="#FFDDAB"/>
</g>
<g clip-path="url(#clip1_4511_35837)">
<path d="M171.154 312.521L167.12 315.221L162.829 312.46L166.866 309.76L171.154 312.521Z" fill="#F2B04D"/>
<path d="M166.609 304.3L162.574 306.997L162.828 312.46L166.865 309.76L166.609 304.3Z" fill="#FFD596"/>
<path d="M166.865 309.761L166.609 304.3L170.9 307.061L171.154 312.522L166.865 309.761Z" fill="#FFDDAB"/>
</g>
<ellipse cx="306.326" cy="703.287" rx="9.15521" ry="9.15649" transform="rotate(-90 306.326 703.287)" fill="#F2B04D"/>
<ellipse opacity="0.3" cx="69.7139" cy="383.062" rx="4.36953" ry="4.37014" transform="rotate(-90 69.7139 383.062)" fill="#F2B04D"/>
<ellipse opacity="0.3" cx="4.36953" cy="4.37014" rx="4.36953" ry="4.37014" transform="matrix(4.37114e-08 -1 -1 -4.37114e-08 305.227 81.4031)" fill="#F2B04D"/>
<ellipse opacity="0.2" cx="370.422" cy="468.996" rx="9.15521" ry="9.15649" transform="rotate(-90 370.422 468.996)" fill="#4885E1"/>
<ellipse opacity="0.2" cx="9.15521" cy="9.15649" rx="9.15521" ry="9.15649" transform="matrix(4.37114e-08 -1 -1 -4.37114e-08 9.30469 172.123)" fill="#4885E1"/>
<ellipse opacity="0.2" cx="113.417" cy="661.048" rx="20.5992" ry="20.6021" transform="rotate(-90 113.417 661.048)" fill="#4885E1"/>
<g clip-path="url(#clip2_4511_35837)">
<path d="M238.657 782.596L242.397 782.459L244.099 779.094L240.358 779.231L238.657 782.596Z" fill="#4885E1"/>
<path d="M238.322 776.003L242.061 775.865L244.099 779.094L240.359 779.231L238.322 776.003Z" fill="#A2C3F5"/>
<path d="M240.359 779.231L238.323 776.003L236.62 779.368L238.658 782.596L240.359 779.231Z" fill="#B8D4FF"/>
</g>
<g clip-path="url(#clip3_4511_35837)">
<path d="M131.913 476.567L128.174 476.43L126.471 473.066L130.212 473.203L131.913 476.567Z" fill="#4885E1"/>
<path d="M132.248 469.975L128.51 469.836L126.471 473.066L130.212 473.203L132.248 469.975Z" fill="#A2C3F5"/>
<path d="M130.211 473.203L132.248 469.975L133.95 473.339L131.912 476.567L130.211 473.203Z" fill="#B8D4FF"/>
</g>
<g clip-path="url(#clip4_4511_35837)">
<path d="M349.648 415.158L353.387 415.021L355.089 411.656L351.349 411.793L349.648 415.158Z" fill="#4885E1"/>
<path d="M349.312 408.565L353.051 408.427L355.09 411.656L351.349 411.793L349.312 408.565Z" fill="#A2C3F5"/>
<path d="M351.349 411.793L349.313 408.565L347.61 411.93L349.648 415.158L351.349 411.793Z" fill="#B8D4FF"/>
</g>
<g clip-path="url(#clip5_4511_35837)">
<path d="M20.9227 109.129L17.1836 108.993L15.4809 105.628L19.2217 105.765L20.9227 109.129Z" fill="#4885E1"/>
<path d="M21.2579 102.537L17.5194 102.398L15.4806 105.628L19.2214 105.765L21.2579 102.537Z" fill="#A2C3F5"/>
<path d="M19.2211 105.765L21.2575 102.537L22.9602 105.901L20.922 109.129L19.2211 105.765Z" fill="#B8D4FF"/>
</g>
<path d="M2.26372 489.219C2.39447 489.204 2.53643 489.225 2.68212 489.29L5.70054 490.642L8.51537 489.561L5.49695 488.209C5.35125 488.143 5.2093 488.123 5.07855 488.138C5.01878 488.145 4.96274 488.158 4.90858 488.179L2.09375 489.26C2.14792 489.24 2.20395 489.225 2.26372 489.219Z" fill="#BF7200"/>
<path d="M8.54653 501.353C8.47928 501.663 8.29437 501.865 8.06836 501.95L10.8832 500.869C11.1092 500.783 11.2922 500.58 11.3614 500.271L12.0935 496.917L9.27872 497.999L8.54653 501.353Z" fill="#BF7200"/>
<path d="M8.44927 488.509C8.94425 488.453 9.48218 488.924 9.51207 489.578L9.67644 493.152L12.34 495.391C12.9377 495.894 12.8742 496.884 12.254 497.121L15.0689 496.04C15.689 495.8 15.7525 494.811 15.1548 494.31L12.4913 492.071L12.3269 488.496C12.297 487.843 11.7591 487.37 11.2641 487.428C11.2062 487.436 11.1502 487.449 11.0941 487.469L8.2793 488.551C8.33533 488.53 8.39137 488.515 8.44927 488.509Z" fill="#BF7200"/>
<path d="M1.65082 490.48L2.84437 493.935L1.14277 496.675C0.748659 497.308 1.22122 498.279 1.94034 498.316L5.05589 498.483L7.02085 501.527C7.24872 501.878 7.5868 502.027 7.88939 501.994C8.19198 501.958 8.45908 501.74 8.545 501.353L9.27719 497.999L12.1929 497.14C12.8672 496.942 12.9531 495.907 12.3367 495.39L9.67317 493.151L9.5088 489.576C9.47892 488.922 8.94098 488.45 8.44601 488.508C8.31526 488.523 8.18825 488.575 8.07244 488.67L5.69655 490.641L2.67813 489.288C2.53244 489.223 2.39049 489.203 2.25974 489.218C1.76476 489.274 1.42855 489.847 1.64709 490.478L1.65082 490.48Z" fill="url(#paint0_linear_4511_35837)"/>
<path d="M2.20165 489.397C2.3324 489.382 2.47435 489.402 2.62004 489.468L5.63847 490.82L8.01435 488.85C8.12829 488.754 8.25717 488.702 8.38792 488.687C8.88289 488.631 9.42083 489.102 9.45072 489.755L9.61509 493.33L12.2786 495.569C12.6391 495.872 12.7568 496.352 12.6597 496.736C12.852 496.333 12.7587 495.743 12.3403 495.394L9.67673 493.154L9.51236 489.58C9.48247 488.926 8.94453 488.454 8.44956 488.512C8.31881 488.526 8.1918 488.579 8.07599 488.674L5.7001 490.644L2.68168 489.292C2.53599 489.227 2.39404 489.206 2.26329 489.221C1.94576 489.257 1.69547 489.505 1.61328 489.843C1.72909 489.597 1.94202 489.427 2.20165 489.397Z" fill="#FF9800"/>
<path d="M7.9536 501.82C7.65101 501.855 7.31107 501.704 7.08506 501.353L5.1201 498.309L2.00455 498.143C1.38256 498.109 0.947353 497.381 1.09491 496.774C0.799794 497.405 1.25928 498.283 1.94291 498.318L5.05846 498.484L7.02342 501.528C7.2513 501.88 7.58937 502.029 7.89196 501.995C8.18708 501.962 8.44858 501.751 8.5401 501.381C8.41869 501.641 8.20016 501.792 7.95547 501.82L7.9536 501.82Z" fill="#FEDC9E"/>
<path d="M368.307 183.19C368.176 183.175 368.034 183.196 367.888 183.261L364.87 184.614L362.055 183.532L365.073 182.18C365.219 182.115 365.361 182.094 365.492 182.109C365.552 182.117 365.608 182.13 365.662 182.15L368.477 183.232C368.422 183.211 368.366 183.196 368.307 183.19Z" fill="#BF7200"/>
<path d="M362.024 195.324C362.091 195.634 362.276 195.836 362.502 195.922L359.687 194.841C359.461 194.755 359.278 194.551 359.209 194.243L358.477 190.889L361.292 191.97L362.024 195.324Z" fill="#BF7200"/>
<path d="M362.121 182.481C361.626 182.425 361.088 182.896 361.058 183.549L360.894 187.124L358.23 189.363C357.633 189.865 357.696 190.855 358.316 191.092L355.501 190.011C354.881 189.772 354.818 188.782 355.416 188.282L358.079 186.042L358.243 182.468C358.273 181.814 358.811 181.342 359.306 181.4C359.364 181.407 359.42 181.42 359.476 181.441L362.291 182.522C362.235 182.501 362.179 182.487 362.121 182.481Z" fill="#BF7200"/>
<path d="M368.919 184.452L367.726 187.907L369.428 190.646C369.822 191.279 369.349 192.251 368.63 192.288L365.514 192.454L363.549 195.498C363.322 195.849 362.984 195.999 362.681 195.965C362.378 195.93 362.111 195.711 362.025 195.325L361.293 191.97L358.377 191.111C357.703 190.913 357.617 189.879 358.234 189.361L360.897 187.122L361.062 183.548C361.091 182.894 361.629 182.421 362.124 182.479C362.255 182.494 362.382 182.547 362.498 182.642L364.874 184.612L367.892 183.26C368.038 183.195 368.18 183.174 368.311 183.189C368.806 183.245 369.142 183.818 368.923 184.45L368.919 184.452Z" fill="url(#paint1_linear_4511_35837)"/>
<path d="M368.369 183.368C368.238 183.353 368.096 183.374 367.95 183.439L364.932 184.791L362.556 182.821C362.442 182.726 362.313 182.673 362.182 182.659C361.687 182.602 361.149 183.073 361.12 183.727L360.955 187.301L358.292 189.541C357.931 189.843 357.814 190.323 357.911 190.708C357.718 190.304 357.812 189.714 358.23 189.365L360.894 187.126L361.058 183.551C361.088 182.898 361.626 182.425 362.121 182.483C362.252 182.498 362.379 182.55 362.494 182.645L364.87 184.616L367.889 183.264C368.034 183.198 368.176 183.178 368.307 183.193C368.625 183.228 368.875 183.477 368.957 183.815C368.841 183.568 368.628 183.398 368.369 183.368Z" fill="#FF9800"/>
<path d="M362.617 195.791C362.919 195.827 363.259 195.675 363.485 195.324L365.45 192.28L368.566 192.114C369.188 192.08 369.623 191.352 369.475 190.745C369.771 191.376 369.311 192.254 368.627 192.29L365.512 192.456L363.547 195.5C363.319 195.851 362.981 196 362.678 195.967C362.383 195.933 362.122 195.722 362.03 195.352C362.152 195.612 362.37 195.763 362.615 195.791L362.617 195.791Z" fill="#FEDC9E"/>
<path d="M370.264 744.604C370.394 744.589 370.536 744.61 370.682 744.675L373.701 746.027L376.515 744.946L373.497 743.594C373.351 743.529 373.209 743.508 373.079 743.523C373.019 743.531 372.963 743.544 372.909 743.564L370.094 744.645C370.148 744.625 370.204 744.61 370.264 744.604Z" fill="#BF7200"/>
<path d="M369.651 745.865L370.844 749.32L369.143 752.06C368.749 752.693 369.221 753.664 369.94 753.702L373.056 753.868L375.021 756.912C375.249 757.263 375.587 757.413 375.889 757.379C376.192 757.343 376.459 757.125 376.545 756.738L377.277 753.384L380.193 752.525C380.867 752.327 380.953 751.293 380.337 750.775L377.673 748.536L377.509 744.961C377.479 744.308 376.941 743.835 376.446 743.893C376.315 743.908 376.188 743.96 376.072 744.056L373.697 746.026L370.678 744.674C370.532 744.608 370.39 744.588 370.26 744.603C369.765 744.659 369.429 745.232 369.647 745.863L369.651 745.865Z" fill="url(#paint2_linear_4511_35837)"/>
<path d="M370.202 744.782C370.332 744.767 370.474 744.788 370.62 744.853L373.638 746.205L376.014 744.235C376.128 744.14 376.257 744.087 376.388 744.072C376.883 744.016 377.421 744.487 377.451 745.141L377.615 748.715L380.279 750.954C380.639 751.257 380.757 751.737 380.66 752.122C380.852 751.718 380.759 751.128 380.34 750.779L377.677 748.54L377.512 744.965C377.482 744.312 376.945 743.839 376.45 743.897C376.319 743.912 376.192 743.964 376.076 744.059L373.7 746.03L370.682 744.678C370.536 744.612 370.394 744.592 370.263 744.607C369.946 744.642 369.695 744.89 369.613 745.228C369.729 744.982 369.942 744.812 370.202 744.782Z" fill="#FF9800"/>
<path d="M375.954 757.205C375.651 757.241 375.311 757.089 375.085 756.738L373.12 753.694L370.005 753.528C369.383 753.494 368.947 752.766 369.095 752.159C368.8 752.79 369.259 753.668 369.943 753.704L373.058 753.87L375.023 756.914C375.251 757.265 375.589 757.414 375.892 757.381C376.187 757.347 376.449 757.136 376.54 756.766C376.419 757.026 376.2 757.177 375.955 757.205L375.954 757.205Z" fill="#FEDC9E"/>
<path d="M0.30659 438.576C0.175841 438.561 0.0338856 438.581 -0.111805 438.647L-3.13023 439.999L-5.94505 438.917L-2.92663 437.565C-2.78094 437.5 -2.63899 437.479 -2.50824 437.494C-2.44847 437.502 -2.39243 437.515 -2.33826 437.535L0.476563 438.617C0.422395 438.596 0.36636 438.581 0.30659 438.576Z" fill="#BF7200"/>
<path d="M0.919489 439.837L-0.274058 443.292L1.42754 446.031C1.82165 446.665 1.34909 447.636 0.629974 447.673L-2.48557 447.839L-4.45054 450.883C-4.67841 451.234 -5.01649 451.384 -5.31908 451.35C-5.62167 451.315 -5.88877 451.096 -5.97469 450.71L-6.70688 447.356L-9.62257 446.496C-10.2969 446.298 -10.3828 445.264 -9.76639 444.747L-7.10286 442.507L-6.93849 438.933C-6.90861 438.279 -6.37067 437.807 -5.87569 437.865C-5.74495 437.879 -5.61793 437.932 -5.50213 438.027L-3.12624 439.997L-0.10782 438.645C0.0378711 438.58 0.179827 438.559 0.310575 438.574C0.805551 438.63 1.14176 439.204 0.923225 439.835L0.919489 439.837Z" fill="url(#paint3_linear_4511_35837)"/>
<path d="M0.368664 438.753C0.237915 438.739 0.0959596 438.759 -0.0497315 438.824L-3.06815 440.177L-5.44404 438.206C-5.55798 438.111 -5.68686 438.059 -5.81761 438.044C-6.31258 437.988 -6.85052 438.458 -6.8804 439.112L-7.04477 442.687L-9.70831 444.926C-10.0688 445.228 -10.1865 445.708 -10.0893 446.093C-10.2817 445.69 -10.1883 445.099 -9.76995 444.75L-7.10641 442.511L-6.94204 438.936C-6.91216 438.283 -6.37422 437.81 -5.87924 437.868C-5.7485 437.883 -5.62148 437.935 -5.50568 438.031L-3.12979 440.001L-0.11137 438.649C0.034321 438.583 0.176277 438.563 0.307025 438.578C0.624557 438.613 0.874847 438.862 0.957032 439.2C0.841226 438.953 0.628293 438.783 0.368664 438.753Z" fill="#FF9800"/>
<path d="M-5.38329 451.177C-5.0807 451.212 -4.74075 451.061 -4.51475 450.71L-2.54978 447.665L0.565765 447.499C1.18775 447.466 1.62296 446.737 1.4754 446.13C1.77052 446.762 1.31103 447.639 0.627404 447.675L-2.48814 447.841L-4.45311 450.885C-4.68098 451.236 -5.01906 451.386 -5.32165 451.352C-5.61677 451.318 -5.87826 451.107 -5.96979 450.738C-5.84838 450.997 -5.62984 451.149 -5.38516 451.177L-5.38329 451.177Z" fill="#FEDC9E"/>
<path d="M286.813 377.939C286.89 378.119 286.922 378.328 286.893 378.565L286.264 383.436L289.007 386.976L289.636 382.104C289.665 381.868 289.636 381.659 289.556 381.479C289.521 381.396 289.476 381.322 289.423 381.254L286.68 377.714C286.733 377.782 286.777 377.856 286.813 377.939Z" fill="#BF7200"/>
<path d="M272.237 392.074C271.767 392.109 271.401 391.935 271.18 391.652L273.923 395.191C274.144 395.475 274.51 395.652 274.98 395.614L280.067 395.218L277.324 391.678L272.237 392.074Z" fill="#BF7200"/>
<path d="M290.473 386.435C290.765 387.114 290.325 388.083 289.407 388.404L284.39 390.167L282.344 394.914C281.886 395.977 280.451 396.314 279.846 395.531L282.589 399.071C283.194 399.854 284.629 399.517 285.087 398.454L287.133 393.707L292.15 391.944C293.068 391.623 293.508 390.654 293.216 389.975C293.183 389.895 293.139 389.822 293.086 389.754L290.343 386.214C290.396 386.285 290.44 386.359 290.473 386.435Z" fill="#BF7200"/>
<path d="M284.755 377.608L280.349 380.788L275.722 379.542C274.654 379.253 273.475 380.339 273.729 381.381L274.828 385.883L271.338 389.984C270.936 390.459 270.868 391.006 271.045 391.422C271.225 391.838 271.651 392.125 272.238 392.08L277.326 391.685L279.797 395.467C280.367 396.34 281.876 396.019 282.348 394.923L284.395 390.176L289.411 388.414C290.33 388.092 290.77 387.123 290.477 386.444C290.4 386.264 290.271 386.105 290.087 385.984L286.267 383.448L286.896 378.576C286.925 378.34 286.896 378.131 286.816 377.951C286.524 377.272 285.564 377.038 284.761 377.62L284.755 377.608Z" fill="url(#paint4_linear_4511_35837)"/>
<path d="M286.535 377.926C286.612 378.106 286.644 378.316 286.615 378.552L285.986 383.424L289.806 385.96C289.989 386.081 290.119 386.24 290.196 386.42C290.489 387.099 290.049 388.068 289.13 388.389L284.114 390.152L282.067 394.899C281.79 395.54 281.161 395.915 280.57 395.941C281.229 396.042 282.026 395.655 282.345 394.911L284.391 390.164L289.408 388.401C290.326 388.079 290.766 387.111 290.474 386.432C290.397 386.252 290.267 386.092 290.084 385.971L286.263 383.435L286.892 378.564C286.922 378.328 286.892 378.118 286.812 377.938C286.626 377.504 286.166 377.253 285.649 377.28C286.048 377.339 286.384 377.569 286.535 377.926Z" fill="#FF9800"/>
<path d="M271.319 391.431C271.139 391.015 271.207 390.468 271.611 389.993L275.101 385.892L274.003 381.39C273.785 380.49 274.635 379.557 275.559 379.51C274.535 379.362 273.483 380.389 273.725 381.378L274.824 385.881L271.334 389.981C270.932 390.457 270.864 391.003 271.041 391.419C271.216 391.827 271.629 392.104 272.193 392.077C271.771 392.018 271.464 391.77 271.319 391.434L271.319 391.431Z" fill="#FEDC9E"/>
<path d="M106.492 10.6607C106.415 10.8408 106.383 11.0504 106.412 11.2866L107.041 16.1579L104.298 19.6978L103.669 14.8264C103.639 14.5903 103.669 14.3806 103.749 14.2006C103.784 14.1179 103.828 14.0441 103.882 13.9762L106.625 10.4364C106.572 10.5043 106.527 10.5781 106.492 10.6607Z" fill="#BF7200"/>
<path d="M121.068 24.7958C121.537 24.8312 121.904 24.657 122.125 24.3736L119.382 27.9134C119.16 28.1968 118.794 28.374 118.325 28.3356L113.237 27.94L115.98 24.4002L121.068 24.7958Z" fill="#BF7200"/>
<path d="M102.832 19.1572C102.54 19.8362 102.98 20.8046 103.898 21.1264L108.915 22.8889L110.961 27.6363C111.419 28.6991 112.854 29.0356 113.459 28.2533L110.716 31.7931C110.111 32.5755 108.676 32.2389 108.218 31.1761L106.172 26.4287L101.155 24.6662C100.237 24.3444 99.7967 23.3761 100.089 22.697C100.122 22.6173 100.166 22.5435 100.219 22.4756L102.962 18.9358C102.909 19.0066 102.865 19.0805 102.832 19.1572Z" fill="#BF7200"/>
<path d="M108.55 10.33L112.955 13.5096L117.582 12.2638C118.651 11.9744 119.829 13.0609 119.575 14.103L118.477 18.6053L121.967 22.7061C122.369 23.1814 122.436 23.7276 122.259 24.1438C122.079 24.5601 121.654 24.8465 121.066 24.8022L115.979 24.4066L113.507 28.1885C112.938 29.0624 111.429 28.7406 110.956 27.6453L108.91 22.898L103.893 21.1355C102.975 20.8137 102.535 19.8453 102.827 19.1663C102.904 18.9862 103.034 18.8268 103.217 18.7057L107.038 16.1697L106.409 11.2983C106.38 11.0622 106.409 10.8525 106.489 10.6725C106.781 9.99343 107.741 9.7602 108.544 10.3418L108.55 10.33Z" fill="url(#paint5_linear_4511_35837)"/>
<path d="M106.77 10.6483C106.693 10.8284 106.661 11.038 106.69 11.2742L107.319 16.1455L103.498 18.6815C103.315 18.8026 103.185 18.962 103.109 19.1421C102.816 19.8211 103.256 20.7895 104.174 21.1113L109.191 22.8738L111.237 27.6211C111.515 28.2618 112.144 28.6367 112.734 28.6633C112.076 28.7637 111.279 28.3769 110.96 27.6329L108.914 22.8856L103.897 21.1231C102.979 20.8013 102.539 19.8329 102.831 19.1539C102.908 18.9738 103.038 18.8144 103.221 18.6933L107.042 16.1573L106.413 11.286C106.383 11.0498 106.413 10.8402 106.492 10.6601C106.678 10.2261 107.139 9.97517 107.656 10.0017C107.257 10.0608 106.92 10.2911 106.77 10.6483Z" fill="#FF9800"/>
<path d="M121.986 24.153C122.166 23.7367 122.098 23.1905 121.693 22.7152L118.203 18.6144L119.302 14.1122C119.52 13.2117 118.67 12.2788 117.746 12.2316C118.77 12.0839 119.821 13.1113 119.579 14.1004L118.481 18.6026L121.971 22.7034C122.372 23.1787 122.44 23.7249 122.263 24.1412C122.089 24.5486 121.676 24.8261 121.112 24.7995C121.534 24.7405 121.841 24.4925 121.986 24.1559L121.986 24.153Z" fill="#FEDC9E"/>
<ellipse cx="0.499999" cy="639" rx="16" ry="16.5" transform="rotate(-90 0.499999 639)" fill="#F2B04D"/>
<ellipse cx="16" cy="16.5" rx="16" ry="16.5" transform="matrix(4.37114e-08 -1 -1 -4.37114e-08 386.57 348.971)" fill="#F2B04D"/>
<g clip-path="url(#clip6_4511_35837)">
<path d="M171.154 1086.52L167.12 1089.22L162.829 1086.46L166.866 1083.76L171.154 1086.52Z" fill="#F2B04D"/>
<path d="M166.609 1078.3L162.574 1081L162.828 1086.46L166.865 1083.76L166.609 1078.3Z" fill="#FFD596"/>
<path d="M166.865 1083.76L166.609 1078.3L170.9 1081.06L171.154 1086.52L166.865 1083.76Z" fill="#FFDDAB"/>
</g>
<ellipse opacity="0.3" cx="69.7139" cy="1157.06" rx="4.36953" ry="4.37014" transform="rotate(-90 69.7139 1157.06)" fill="#F2B04D"/>
<ellipse opacity="0.3" cx="4.36953" cy="4.37014" rx="4.36953" ry="4.37014" transform="matrix(4.37114e-08 -1 -1 -4.37114e-08 305.227 855.403)" fill="#F2B04D"/>
<ellipse opacity="0.2" cx="370.422" cy="1243" rx="9.15521" ry="9.15649" transform="rotate(-90 370.422 1243)" fill="#4885E1"/>
<ellipse opacity="0.2" cx="9.15521" cy="9.15649" rx="9.15521" ry="9.15649" transform="matrix(4.37114e-08 -1 -1 -4.37114e-08 9.30469 946.123)" fill="#4885E1"/>
<g clip-path="url(#clip7_4511_35837)">
<path d="M131.913 1250.57L128.174 1250.43L126.471 1247.07L130.212 1247.2L131.913 1250.57Z" fill="#4885E1"/>
<path d="M132.248 1243.97L128.51 1243.84L126.471 1247.07L130.212 1247.2L132.248 1243.97Z" fill="#A2C3F5"/>
<path d="M130.211 1247.2L132.248 1243.97L133.95 1247.34L131.912 1250.57L130.211 1247.2Z" fill="#B8D4FF"/>
</g>
<g clip-path="url(#clip8_4511_35837)">
<path d="M349.648 1189.16L353.387 1189.02L355.089 1185.66L351.349 1185.79L349.648 1189.16Z" fill="#4885E1"/>
<path d="M349.312 1182.57L353.051 1182.43L355.09 1185.66L351.349 1185.79L349.312 1182.57Z" fill="#A2C3F5"/>
<path d="M351.349 1185.79L349.313 1182.57L347.61 1185.93L349.648 1189.16L351.349 1185.79Z" fill="#B8D4FF"/>
</g>
<g clip-path="url(#clip9_4511_35837)">
<path d="M20.9227 883.129L17.1836 882.992L15.4809 879.628L19.2217 879.765L20.9227 883.129Z" fill="#4885E1"/>
<path d="M21.2579 876.537L17.5194 876.398L15.4806 879.628L19.2214 879.765L21.2579 876.537Z" fill="#A2C3F5"/>
<path d="M19.2211 879.765L21.2575 876.537L22.9602 879.901L20.922 883.129L19.2211 879.765Z" fill="#B8D4FF"/>
</g>
<path d="M2.26372 1263.22C2.39447 1263.2 2.53643 1263.22 2.68212 1263.29L5.70054 1264.64L8.51537 1263.56L5.49695 1262.21C5.35125 1262.14 5.2093 1262.12 5.07855 1262.14C5.01878 1262.15 4.96274 1262.16 4.90858 1262.18L2.09375 1263.26C2.14792 1263.24 2.20395 1263.22 2.26372 1263.22Z" fill="#BF7200"/>
<path d="M8.54653 1275.35C8.47928 1275.66 8.29437 1275.86 8.06836 1275.95L10.8832 1274.87C11.1092 1274.78 11.2922 1274.58 11.3614 1274.27L12.0935 1270.92L9.27872 1272L8.54653 1275.35Z" fill="#BF7200"/>
<path d="M8.44927 1262.51C8.94425 1262.45 9.48218 1262.92 9.51207 1263.58L9.67644 1267.15L12.34 1269.39C12.9377 1269.89 12.8742 1270.88 12.254 1271.12L15.0689 1270.04C15.689 1269.8 15.7525 1268.81 15.1548 1268.31L12.4913 1266.07L12.3269 1262.5C12.297 1261.84 11.7591 1261.37 11.2641 1261.43C11.2062 1261.44 11.1502 1261.45 11.0941 1261.47L8.2793 1262.55C8.33533 1262.53 8.39137 1262.52 8.44927 1262.51Z" fill="#BF7200"/>
<path d="M1.65082 1264.48L2.84437 1267.93L1.14277 1270.67C0.748659 1271.31 1.22122 1272.28 1.94034 1272.32L5.05589 1272.48L7.02085 1275.53C7.24872 1275.88 7.5868 1276.03 7.88939 1275.99C8.19198 1275.96 8.45908 1275.74 8.545 1275.35L9.27719 1272L12.1929 1271.14C12.8672 1270.94 12.9531 1269.91 12.3367 1269.39L9.67317 1267.15L9.5088 1263.58C9.47892 1262.92 8.94098 1262.45 8.44601 1262.51C8.31526 1262.52 8.18825 1262.58 8.07244 1262.67L5.69655 1264.64L2.67813 1263.29C2.53244 1263.22 2.39049 1263.2 2.25974 1263.22C1.76476 1263.27 1.42855 1263.85 1.64709 1264.48L1.65082 1264.48Z" fill="url(#paint6_linear_4511_35837)"/>
<path d="M2.20165 1263.4C2.3324 1263.38 2.47435 1263.4 2.62004 1263.47L5.63847 1264.82L8.01435 1262.85C8.12829 1262.75 8.25717 1262.7 8.38792 1262.69C8.88289 1262.63 9.42083 1263.1 9.45072 1263.76L9.61509 1267.33L12.2786 1269.57C12.6391 1269.87 12.7568 1270.35 12.6597 1270.74C12.852 1270.33 12.7587 1269.74 12.3403 1269.39L9.67673 1267.15L9.51236 1263.58C9.48247 1262.93 8.94453 1262.45 8.44956 1262.51C8.31881 1262.53 8.1918 1262.58 8.07599 1262.67L5.7001 1264.64L2.68168 1263.29C2.53599 1263.23 2.39404 1263.21 2.26329 1263.22C1.94576 1263.26 1.69547 1263.51 1.61328 1263.84C1.72909 1263.6 1.94202 1263.43 2.20165 1263.4Z" fill="#FF9800"/>
<path d="M7.9536 1275.82C7.65101 1275.86 7.31107 1275.7 7.08506 1275.35L5.1201 1272.31L2.00455 1272.14C1.38256 1272.11 0.947353 1271.38 1.09491 1270.77C0.799794 1271.4 1.25928 1272.28 1.94291 1272.32L5.05846 1272.48L7.02342 1275.53C7.2513 1275.88 7.58937 1276.03 7.89196 1276C8.18708 1275.96 8.44858 1275.75 8.5401 1275.38C8.41869 1275.64 8.20016 1275.79 7.95547 1275.82L7.9536 1275.82Z" fill="#FEDC9E"/>
<path d="M368.307 957.19C368.176 957.175 368.034 957.196 367.888 957.261L364.87 958.614L362.055 957.532L365.073 956.18C365.219 956.115 365.361 956.094 365.492 956.109C365.552 956.117 365.608 956.13 365.662 956.15L368.477 957.232C368.422 957.211 368.366 957.196 368.307 957.19Z" fill="#BF7200"/>
<path d="M362.024 969.324C362.091 969.634 362.276 969.836 362.502 969.922L359.687 968.841C359.461 968.755 359.278 968.551 359.209 968.243L358.477 964.889L361.292 965.97L362.024 969.324Z" fill="#BF7200"/>
<path d="M362.121 956.481C361.626 956.425 361.088 956.896 361.058 957.549L360.894 961.124L358.23 963.363C357.633 963.865 357.696 964.855 358.316 965.092L355.501 964.011C354.881 963.772 354.818 962.782 355.416 962.282L358.079 960.042L358.243 956.468C358.273 955.814 358.811 955.342 359.306 955.4C359.364 955.407 359.42 955.42 359.476 955.441L362.291 956.522C362.235 956.501 362.179 956.487 362.121 956.481Z" fill="#BF7200"/>
<path d="M368.919 958.451L367.726 961.906L369.428 964.646C369.822 965.279 369.349 966.25 368.63 966.288L365.514 966.454L363.549 969.498C363.322 969.849 362.984 969.999 362.681 969.965C362.378 969.93 362.111 969.711 362.025 969.324L361.293 965.97L358.377 965.111C357.703 964.913 357.617 963.879 358.234 963.361L360.897 961.122L361.062 957.547C361.091 956.894 361.629 956.421 362.124 956.479C362.255 956.494 362.382 956.546 362.498 956.642L364.874 958.612L367.892 957.26C368.038 957.195 368.18 957.174 368.311 957.189C368.806 957.245 369.142 957.818 368.923 958.45L368.919 958.451Z" fill="url(#paint7_linear_4511_35837)"/>
<path d="M368.369 957.368C368.238 957.353 368.096 957.374 367.95 957.439L364.932 958.791L362.556 956.821C362.442 956.726 362.313 956.673 362.182 956.659C361.687 956.602 361.149 957.073 361.12 957.727L360.955 961.301L358.292 963.541C357.931 963.843 357.814 964.323 357.911 964.708C357.718 964.304 357.812 963.714 358.23 963.365L360.894 961.126L361.058 957.551C361.088 956.898 361.626 956.425 362.121 956.483C362.252 956.498 362.379 956.55 362.494 956.645L364.87 958.616L367.889 957.264C368.034 957.198 368.176 957.178 368.307 957.193C368.625 957.228 368.875 957.477 368.957 957.815C368.841 957.568 368.628 957.398 368.369 957.368Z" fill="#FF9800"/>
<path d="M362.617 969.791C362.919 969.827 363.259 969.675 363.485 969.324L365.45 966.28L368.566 966.114C369.188 966.08 369.623 965.352 369.475 964.745C369.771 965.376 369.311 966.254 368.627 966.29L365.512 966.456L363.547 969.5C363.319 969.851 362.981 970 362.678 969.967C362.383 969.933 362.122 969.722 362.03 969.352C362.152 969.612 362.37 969.763 362.615 969.791L362.617 969.791Z" fill="#FEDC9E"/>
<path d="M0.30659 1212.58C0.175841 1212.56 0.0338856 1212.58 -0.111805 1212.65L-3.13023 1214L-5.94505 1212.92L-2.92663 1211.57C-2.78094 1211.5 -2.63899 1211.48 -2.50824 1211.49C-2.44847 1211.5 -2.39243 1211.51 -2.33826 1211.54L0.476563 1212.62C0.422395 1212.6 0.36636 1212.58 0.30659 1212.58Z" fill="#BF7200"/>
<path d="M0.919489 1213.84L-0.274058 1217.29L1.42754 1220.03C1.82165 1220.66 1.34909 1221.64 0.629974 1221.67L-2.48557 1221.84L-4.45054 1224.88C-4.67841 1225.23 -5.01649 1225.38 -5.31908 1225.35C-5.62167 1225.31 -5.88877 1225.1 -5.97469 1224.71L-6.70688 1221.36L-9.62257 1220.5C-10.2969 1220.3 -10.3828 1219.26 -9.76639 1218.75L-7.10286 1216.51L-6.93849 1212.93C-6.90861 1212.28 -6.37067 1211.81 -5.87569 1211.86C-5.74495 1211.88 -5.61793 1211.93 -5.50213 1212.03L-3.12624 1214L-0.10782 1212.65C0.0378711 1212.58 0.179827 1212.56 0.310575 1212.57C0.805551 1212.63 1.14176 1213.2 0.923225 1213.83L0.919489 1213.84Z" fill="url(#paint8_linear_4511_35837)"/>
<path d="M0.368664 1212.75C0.237915 1212.74 0.0959596 1212.76 -0.0497315 1212.82L-3.06815 1214.18L-5.44404 1212.21C-5.55798 1212.11 -5.68686 1212.06 -5.81761 1212.04C-6.31258 1211.99 -6.85052 1212.46 -6.8804 1213.11L-7.04477 1216.69L-9.70831 1218.93C-10.0688 1219.23 -10.1865 1219.71 -10.0893 1220.09C-10.2817 1219.69 -10.1883 1219.1 -9.76995 1218.75L-7.10641 1216.51L-6.94204 1212.94C-6.91216 1212.28 -6.37422 1211.81 -5.87924 1211.87C-5.7485 1211.88 -5.62148 1211.94 -5.50568 1212.03L-3.12979 1214L-0.11137 1212.65C0.034321 1212.58 0.176277 1212.56 0.307025 1212.58C0.624557 1212.61 0.874847 1212.86 0.957032 1213.2C0.841226 1212.95 0.628293 1212.78 0.368664 1212.75Z" fill="#FF9800"/>
<path d="M-5.38329 1225.18C-5.0807 1225.21 -4.74075 1225.06 -4.51475 1224.71L-2.54978 1221.67L0.565765 1221.5C1.18775 1221.47 1.62296 1220.74 1.4754 1220.13C1.77052 1220.76 1.31103 1221.64 0.627404 1221.67L-2.48814 1221.84L-4.45311 1224.89C-4.68098 1225.24 -5.01906 1225.39 -5.32165 1225.35C-5.61677 1225.32 -5.87826 1225.11 -5.96979 1224.74C-5.84838 1225 -5.62984 1225.15 -5.38516 1225.18L-5.38329 1225.18Z" fill="#FEDC9E"/>
<path d="M286.813 1151.94C286.89 1152.12 286.922 1152.33 286.893 1152.56L286.264 1157.44L289.007 1160.98L289.636 1156.1C289.665 1155.87 289.636 1155.66 289.556 1155.48C289.521 1155.4 289.476 1155.32 289.423 1155.25L286.68 1151.71C286.733 1151.78 286.777 1151.86 286.813 1151.94Z" fill="#BF7200"/>
<path d="M272.237 1166.07C271.767 1166.11 271.401 1165.94 271.18 1165.65L273.923 1169.19C274.144 1169.47 274.51 1169.65 274.98 1169.61L280.067 1169.22L277.324 1165.68L272.237 1166.07Z" fill="#BF7200"/>
<path d="M290.473 1160.44C290.765 1161.11 290.325 1162.08 289.407 1162.4L284.39 1164.17L282.344 1168.91C281.886 1169.98 280.451 1170.31 279.846 1169.53L282.589 1173.07C283.194 1173.85 284.629 1173.52 285.087 1172.45L287.133 1167.71L292.15 1165.94C293.068 1165.62 293.508 1164.65 293.216 1163.98C293.183 1163.9 293.139 1163.82 293.086 1163.75L290.343 1160.21C290.396 1160.28 290.44 1160.36 290.473 1160.44Z" fill="#BF7200"/>
<path d="M284.755 1151.61L280.349 1154.79L275.722 1153.54C274.654 1153.25 273.475 1154.34 273.729 1155.38L274.828 1159.88L271.338 1163.98C270.936 1164.46 270.868 1165.01 271.045 1165.42C271.225 1165.84 271.651 1166.12 272.238 1166.08L277.326 1165.68L279.797 1169.47C280.367 1170.34 281.876 1170.02 282.348 1168.92L284.395 1164.18L289.411 1162.41C290.33 1162.09 290.77 1161.12 290.477 1160.44C290.4 1160.26 290.271 1160.1 290.087 1159.98L286.267 1157.45L286.896 1152.58C286.925 1152.34 286.896 1152.13 286.816 1151.95C286.524 1151.27 285.564 1151.04 284.761 1151.62L284.755 1151.61Z" fill="url(#paint9_linear_4511_35837)"/>
<path d="M286.535 1151.93C286.612 1152.11 286.644 1152.32 286.615 1152.55L285.986 1157.42L289.806 1159.96C289.989 1160.08 290.119 1160.24 290.196 1160.42C290.489 1161.1 290.049 1162.07 289.13 1162.39L284.114 1164.15L282.067 1168.9C281.79 1169.54 281.161 1169.91 280.57 1169.94C281.229 1170.04 282.026 1169.66 282.345 1168.91L284.391 1164.16L289.408 1162.4C290.326 1162.08 290.766 1161.11 290.474 1160.43C290.397 1160.25 290.267 1160.09 290.084 1159.97L286.263 1157.44L286.892 1152.56C286.922 1152.33 286.892 1152.12 286.812 1151.94C286.626 1151.5 286.166 1151.25 285.649 1151.28C286.048 1151.34 286.384 1151.57 286.535 1151.93Z" fill="#FF9800"/>
<path d="M271.319 1165.43C271.139 1165.01 271.207 1164.47 271.611 1163.99L275.101 1159.89L274.003 1155.39C273.785 1154.49 274.635 1153.56 275.559 1153.51C274.535 1153.36 273.483 1154.39 273.725 1155.38L274.824 1159.88L271.334 1163.98C270.932 1164.46 270.864 1165 271.041 1165.42C271.216 1165.83 271.629 1166.1 272.193 1166.08C271.771 1166.02 271.464 1165.77 271.319 1165.43L271.319 1165.43Z" fill="#FEDC9E"/>
<path d="M106.494 784.661C106.417 784.841 106.385 785.05 106.414 785.287L107.043 790.158L104.3 793.698L103.671 788.826C103.641 788.59 103.671 788.381 103.751 788.201C103.786 788.118 103.83 788.044 103.884 787.976L106.627 784.436C106.573 784.504 106.529 784.578 106.494 784.661Z" fill="#BF7200"/>
<path d="M121.07 798.796C121.539 798.831 121.905 798.657 122.127 798.374L119.384 801.914C119.162 802.197 118.796 802.374 118.327 802.336L113.239 801.94L115.982 798.4L121.07 798.796Z" fill="#BF7200"/>
<path d="M102.834 793.157C102.542 793.836 102.982 794.805 103.9 795.127L108.917 796.889L110.963 801.636C111.421 802.699 112.856 803.036 113.461 802.253L110.718 805.793C110.113 806.576 108.678 806.239 108.22 805.176L106.174 800.429L101.157 798.666C100.239 798.345 99.7987 797.376 100.091 796.697C100.123 796.617 100.168 796.544 100.221 796.476L102.964 792.936C102.911 793.007 102.867 793.081 102.834 793.157Z" fill="#BF7200"/>
<path d="M108.552 784.33L112.957 787.51L117.584 786.264C118.653 785.975 119.831 787.061 119.577 788.103L118.479 792.605L121.969 796.706C122.371 797.182 122.438 797.728 122.261 798.144C122.081 798.56 121.656 798.847 121.068 798.802L115.981 798.407L113.509 802.189C112.94 803.063 111.431 802.741 110.958 801.645L108.912 796.898L103.895 795.136C102.977 794.814 102.537 793.845 102.829 793.166C102.906 792.986 103.036 792.827 103.219 792.706L107.04 790.17L106.411 785.298C106.382 785.062 106.411 784.853 106.491 784.673C106.783 783.994 107.743 783.76 108.546 784.342L108.552 784.33Z" fill="url(#paint10_linear_4511_35837)"/>
<path d="M106.772 784.648C106.695 784.829 106.663 785.038 106.692 785.274L107.321 790.146L103.5 792.682C103.317 792.803 103.187 792.962 103.11 793.142C102.818 793.821 103.258 794.79 104.176 795.111L109.193 796.874L111.239 801.621C111.517 802.262 112.146 802.637 112.736 802.663C112.078 802.764 111.281 802.377 110.962 801.633L108.916 796.886L103.899 795.123C102.981 794.801 102.541 793.833 102.833 793.154C102.91 792.974 103.04 792.815 103.223 792.693L107.043 790.157L106.415 785.286C106.385 785.05 106.415 784.84 106.494 784.66C106.68 784.226 107.141 783.975 107.658 784.002C107.259 784.061 106.922 784.291 106.772 784.648Z" fill="#FF9800"/>
<path d="M121.988 798.153C122.168 797.737 122.1 797.191 121.695 796.715L118.205 792.614L119.304 788.112C119.522 787.212 118.672 786.279 117.748 786.232C118.772 786.084 119.823 787.111 119.581 788.1L118.483 792.603L121.973 796.703C122.374 797.179 122.442 797.725 122.265 798.141C122.091 798.549 121.678 798.826 121.114 798.8C121.536 798.74 121.843 798.492 121.988 798.156L121.988 798.153Z" fill="#FEDC9E"/>
<ellipse cx="16" cy="16.5" rx="16" ry="16.5" transform="matrix(4.37114e-08 -1 -1 -4.37114e-08 386.57 1122.97)" fill="#F2B04D"/>
<defs>
<linearGradient id="paint0_linear_4511_35837" x1="13.689" y1="498.32" x2="4.26642" y2="493.084" gradientUnits="userSpaceOnUse">
<stop stop-color="#FF9800"/>
<stop offset="1" stop-color="#FECA71"/>
</linearGradient>
<linearGradient id="paint1_linear_4511_35837" x1="356.881" y1="192.292" x2="366.304" y2="187.056" gradientUnits="userSpaceOnUse">
<stop stop-color="#FF9800"/>
<stop offset="1" stop-color="#FECA71"/>
</linearGradient>
<linearGradient id="paint2_linear_4511_35837" x1="381.689" y1="753.705" x2="372.266" y2="748.469" gradientUnits="userSpaceOnUse">
<stop stop-color="#FF9800"/>
<stop offset="1" stop-color="#FECA71"/>
</linearGradient>
<linearGradient id="paint3_linear_4511_35837" x1="-11.1187" y1="447.677" x2="-1.69611" y2="442.441" gradientUnits="userSpaceOnUse">
<stop stop-color="#FF9800"/>
<stop offset="1" stop-color="#FECA71"/>
</linearGradient>
<linearGradient id="paint4_linear_4511_35837" x1="293.483" y1="389.863" x2="279.573" y2="385.451" gradientUnits="userSpaceOnUse">
<stop stop-color="#FF9800"/>
<stop offset="1" stop-color="#FECA71"/>
</linearGradient>
<linearGradient id="paint5_linear_4511_35837" x1="99.8216" y1="22.585" x2="113.732" y2="18.1732" gradientUnits="userSpaceOnUse">
<stop stop-color="#FF9800"/>
<stop offset="1" stop-color="#FECA71"/>
</linearGradient>
<linearGradient id="paint6_linear_4511_35837" x1="13.689" y1="1272.32" x2="4.26642" y2="1267.08" gradientUnits="userSpaceOnUse">
<stop stop-color="#FF9800"/>
<stop offset="1" stop-color="#FECA71"/>
</linearGradient>
<linearGradient id="paint7_linear_4511_35837" x1="356.881" y1="966.291" x2="366.304" y2="961.056" gradientUnits="userSpaceOnUse">
<stop stop-color="#FF9800"/>
<stop offset="1" stop-color="#FECA71"/>
</linearGradient>
<linearGradient id="paint8_linear_4511_35837" x1="-11.1187" y1="1221.68" x2="-1.69611" y2="1216.44" gradientUnits="userSpaceOnUse">
<stop stop-color="#FF9800"/>
<stop offset="1" stop-color="#FECA71"/>
</linearGradient>
<linearGradient id="paint9_linear_4511_35837" x1="293.483" y1="1163.86" x2="279.573" y2="1159.45" gradientUnits="userSpaceOnUse">
<stop stop-color="#FF9800"/>
<stop offset="1" stop-color="#FECA71"/>
</linearGradient>
<linearGradient id="paint10_linear_4511_35837" x1="99.8236" y1="796.585" x2="113.733" y2="792.173" gradientUnits="userSpaceOnUse">
<stop stop-color="#FF9800"/>
<stop offset="1" stop-color="#FECA71"/>
</linearGradient>
<clipPath id="clip0_4511_35837">
<rect width="10.7693" height="9.05496" fill="white" transform="matrix(0.218039 -0.97594 0.975953 0.217981 198.113 620.057)"/>
</clipPath>
<clipPath id="clip1_4511_35837">
<rect width="10.7693" height="9.05496" fill="white" transform="matrix(-0.218039 -0.97594 -0.975953 0.217981 172.457 314.029)"/>
</clipPath>
<clipPath id="clip2_4511_35837">
<rect width="7.49076" height="7.07534" fill="white" transform="matrix(-0.360667 -0.932695 0.932729 -0.360579 238.41 784)"/>
</clipPath>
<clipPath id="clip3_4511_35837">
<rect width="7.49076" height="7.07534" fill="white" transform="matrix(0.360667 -0.932695 -0.932729 -0.360579 132.16 477.971)"/>
</clipPath>
<clipPath id="clip4_4511_35837">
<rect width="7.49076" height="7.07534" fill="white" transform="matrix(-0.360667 -0.932695 0.932729 -0.360579 349.4 416.562)"/>
</clipPath>
<clipPath id="clip5_4511_35837">
<rect width="7.49076" height="7.07534" fill="white" transform="matrix(0.360667 -0.932695 -0.932729 -0.360579 21.1699 110.533)"/>
</clipPath>
<clipPath id="clip6_4511_35837">
<rect width="10.7693" height="9.05496" fill="white" transform="matrix(-0.218039 -0.97594 -0.975953 0.217981 172.457 1088.03)"/>
</clipPath>
<clipPath id="clip7_4511_35837">
<rect width="7.49076" height="7.07534" fill="white" transform="matrix(0.360667 -0.932695 -0.932729 -0.360579 132.16 1251.97)"/>
</clipPath>
<clipPath id="clip8_4511_35837">
<rect width="7.49076" height="7.07534" fill="white" transform="matrix(-0.360667 -0.932695 0.932729 -0.360579 349.4 1190.56)"/>
</clipPath>
<clipPath id="clip9_4511_35837">
<rect width="7.49076" height="7.07534" fill="white" transform="matrix(0.360667 -0.932695 -0.932729 -0.360579 21.1699 884.533)"/>
</clipPath>
</defs>
</svg>
